<?xml version="1.0" standalone="yes"?>

<svg version="1.1" viewBox="0.0 0.0 800.0 600.0" fill="none" stroke="none" stroke-linecap="square" stroke-miterlimit="10" clip-path="url(#clip0)" xmlns="http://www.w3.org/2000/svg" xmlns:xlink="http://www.w3.org/1999/xlink"><clipPath id="clip0"><path d="M0 0L800.0 0L800.0 600.0L0 600.0L0 0Z" clip-rule="nonzero"></path></clipPath><path d="M448.0 131.67491L448.0 131.67491C448.0 121.365395 456.3575 113.00787 466.66705 113.00787L541.33295 113.00787L541.33295 113.00787C546.28375 113.00787 551.0318 114.97457 554.53253 118.47533C558.0333 121.976074 560.0 126.724106 560.0 131.67491L560.0 261.33295C560.0 271.6425 551.64246 280.0 541.33295 280.0L466.66705 280.0C456.3575 280.0 448.0 271.6425 448.0 261.33295Z" fill-rule="nonzero" fill="#ffffff" stroke="#073763" stroke-width="2.0" stroke-linejoin="round" stroke-linecap="butt"></path><path d="M464.0 144.00787L464.0 144.00787C464.0 135.17131 471.16345 128.00787 480.0 128.00787L480.0 128.00787C484.24347 128.00787 488.31314 129.69359 491.31372 132.69417C494.3143 135.69475 496.0 139.7644 496.0 144.00787L496.0 144.00787C496.0 152.84444 488.83655 160.00787 480.0 160.00787L480.0 160.00787C471.16345 160.00787 464.0 152.84444 464.0 144.00787Z" fill-rule="nonzero" fill="#cfe2f3" stroke="#073763" stroke-width="2.0" stroke-linejoin="round" stroke-linecap="butt"></path><path d="M465.0 192.00787L465.0 192.00787C465.0 183.17131 472.16345 176.00787 481.0 176.00787L481.0 176.00787C485.24347 176.00787 489.31314 177.69359 492.31372 180.69417C495.3143 183.69475 497.0 187.7644 497.0 192.00787L497.0 192.00787C497.0 200.84444 489.83655 208.00787 481.0 208.00787L481.0 208.00787C472.16345 208.00787 465.0 200.84444 465.0 192.00787Z" fill-rule="nonzero" fill="#cfe2f3" stroke="#073763" stroke-width="2.0" stroke-linejoin="round" stroke-linecap="butt"></path><path d="M485.25 241.00787L485.25 229.55475L490.32812 229.55475Q491.85938 229.55475 492.65625 229.85944Q493.45312 230.16412 493.9297 230.94537Q494.40625 231.72662 494.40625 232.67975Q494.40625 233.8985 493.6172 234.73444Q492.82812 235.57037 491.17188 235.78912Q491.78125 236.086 492.09375 236.36725Q492.75 236.97662 493.34375 237.88287L495.34375 241.00787L493.4375 241.00787L491.92188 238.61725Q491.25 237.586 490.8203 237.03912Q490.39062 236.49225 490.0547 236.2735Q489.71875 236.05475 489.35938 235.97662Q489.10938 235.91412 488.51562 235.91412L486.76562 235.91412L486.76562 241.00787L485.25 241.00787ZM486.76562 234.60162L490.01562 234.60162Q491.0625 234.60162 491.64844 234.39069Q492.23438 234.17975 492.53906 233.70319Q492.84375 233.22662 492.84375 232.67975Q492.84375 231.86725 492.25 231.34381Q491.65625 230.82037 490.39062 230.82037L486.76562 230.82037L486.76562 234.60162ZM496.26562 237.32037L497.70312 237.19537Q497.79688 238.05475 498.17188 238.60944Q498.54688 239.16412 499.32812 239.50006Q500.10938 239.836 501.07812 239.836Q501.95312 239.836 502.6172 239.57819Q503.28125 239.32037 503.60156 238.87506Q503.92188 238.42975 503.92188 237.8985Q503.92188 237.35162 503.60938 236.95319Q503.29688 236.55475 502.57812 236.2735Q502.125 236.10162 500.54688 235.71881Q498.96875 235.336 498.32812 235.00787Q497.51562 234.57037 497.10938 233.93756Q496.70312 233.30475 496.70312 232.50787Q496.70312 231.6485 497.1953 230.89069Q497.6875 230.13287 498.6328 229.74225Q499.57812 229.35162 500.73438 229.35162Q502.01562 229.35162 502.98438 229.76569Q503.95312 230.17975 504.47656 230.97662Q505.0 231.7735 505.04688 232.7735L503.59375 232.88287Q503.46875 231.80475 502.79688 231.25006Q502.125 230.69537 500.79688 230.69537Q499.42188 230.69537 498.79688 231.19537Q498.17188 231.69537 498.17188 232.41412Q498.17188 233.0235 498.60938 233.42975Q499.04688 233.82037 500.89844 234.24225Q502.75 234.66412 503.4375 234.97662Q504.4375 235.42975 504.91406 236.14069Q505.39062 236.85162 505.39062 237.7735Q505.39062 238.67975 504.8672 239.49225Q504.34375 240.30475 503.35938 240.75787Q502.375 241.211 501.15625 241.211Q499.59375 241.211 498.54688 240.75006Q497.5 240.28912 496.89844 239.38287Q496.29688 238.47662 496.26562 237.32037ZM512.9531 238.336L514.40625 238.50787Q514.0625 239.78912 513.1328 240.49225Q512.2031 241.19537 510.76562 241.19537Q508.9375 241.19537 507.875 240.07037Q506.8125 238.94537 506.8125 236.92975Q506.8125 234.836 507.89062 233.67975Q508.96875 232.5235 510.6875 232.5235Q512.34375 232.5235 513.39844 233.65631Q514.4531 234.78912 514.4531 236.836Q514.4531 236.961 514.4531 237.211L508.26562 237.211Q508.34375 238.586 509.03906 239.31256Q509.73438 240.03912 510.76562 240.03912Q511.54688 240.03912 512.09375 239.63287Q512.6406 239.22662 512.9531 238.336ZM508.34375 236.05475L512.96875 236.05475Q512.875 235.00787 512.4375 234.49225Q511.76562 233.67975 510.70312 233.67975Q509.73438 233.67975 509.0703 234.32819Q508.40625 234.97662 508.34375 236.05475ZM516.15625 241.00787L516.15625 232.711L517.4219 232.711L517.4219 233.961Q517.90625 233.086 518.3125 232.80475Q518.71875 232.5235 519.21875 232.5235Q519.9219 232.5235 520.65625 232.97662L520.1719 234.2735Q519.65625 233.97662 519.1406 233.97662Q518.6875 233.97662 518.3203 234.25006Q517.9531 234.5235 517.7969 235.0235Q517.5625 235.7735 517.5625 236.66412L517.5625 241.00787L516.15625 241.00787ZM523.7969 241.00787L520.6406 232.711L522.125 232.711L523.90625 237.67975Q524.2031 238.47662 524.4375 239.35162Q524.625 238.69537 524.96875 237.7735L526.8125 232.711L528.25 232.711L525.1094 241.00787L523.7969 241.00787ZM529.5 231.16412L529.5 229.55475L530.90625 229.55475L530.90625 231.16412L529.5 231.16412ZM529.5 241.00787L529.5 232.711L530.90625 232.711L530.90625 241.00787L529.5 241.00787Z" fill-rule="nonzero" fill="#000000"></path><path d="M486.09375 259.00787L486.09375 247.55475L487.65625 247.55475L493.67188 256.53912L493.67188 247.55475L495.125 247.55475L495.125 259.00787L493.5625 259.00787L487.54688 250.00787L487.54688 259.00787L486.09375 259.00787ZM496.95312 254.85162Q496.95312 252.55475 498.23438 251.44537Q499.3125 250.5235 500.84375 250.5235Q502.5625 250.5235 503.64844 251.64069Q504.73438 252.75787 504.73438 254.74225Q504.73438 256.336 504.25 257.25787Q503.76562 258.17975 502.85156 258.68756Q501.9375 259.19537 500.84375 259.19537Q499.10938 259.19537 498.03125 258.0782Q496.95312 256.961 496.95312 254.85162ZM498.40625 254.85162Q498.40625 256.44537 499.10156 257.24225Q499.79688 258.03912 500.84375 258.03912Q501.89062 258.03912 502.58594 257.24225Q503.28125 256.44537 503.28125 254.80475Q503.28125 253.2735 502.58594 252.47662Q501.89062 251.67975 500.84375 251.67975Q499.79688 251.67975 499.10156 252.46881Q498.40625 253.25787 498.40625 254.85162ZM511.76562 259.00787L511.76562 257.961Q510.98438 259.19537 509.45312 259.19537Q508.45312 259.19537 507.625 258.6485Q506.79688 258.10162 506.33594 257.11725Q505.875 256.13287 505.875 254.86725Q505.875 253.61725 506.28906 252.60944Q506.70312 251.60162 507.53125 251.06256Q508.35938 250.5235 509.39062 250.5235Q510.14062 250.5235 510.72656 250.836Q511.3125 251.1485 511.67188 251.66412L511.67188 247.55475L513.0781 247.55475L513.0781 259.00787L511.76562 259.00787ZM507.32812 254.86725Q507.32812 256.461 508.0 257.25006Q508.67188 258.03912 509.57812 258.03912Q510.5 258.03912 511.14844 257.2813Q511.79688 256.5235 511.79688 254.97662Q511.79688 253.2735 511.14062 252.47662Q510.48438 251.67975 509.51562 251.67975Q508.57812 251.67975 507.95312 252.44537Q507.32812 253.211 507.32812 254.86725ZM520.9531 256.336L522.40625 256.50787Q522.0625 257.78912 521.1328 258.49225Q520.2031 259.19537 518.7656 259.19537Q516.9375 259.19537 515.875 258.07037Q514.8125 256.94537 514.8125 254.92975Q514.8125 252.836 515.8906 251.67975Q516.96875 250.5235 518.6875 250.5235Q520.34375 250.5235 521.39844 251.65631Q522.4531 252.78912 522.4531 254.836Q522.4531 254.961 522.4531 255.211L516.2656 255.211Q516.34375 256.586 517.03906 257.31256Q517.7344 258.03912 518.7656 258.03912Q519.5469 258.03912 520.09375 257.63287Q520.6406 257.22662 520.9531 256.336ZM516.34375 254.05475L520.96875 254.05475Q520.875 253.00787 520.4375 252.49225Q519.7656 251.67975 518.7031 251.67975Q517.7344 251.67975 517.0703 252.32819Q516.40625 252.97662 516.34375 254.05475ZM523.625 256.5235L525.0156 256.30475Q525.125 257.1485 525.66406 257.5938Q526.2031 258.03912 527.15625 258.03912Q528.125 258.03912 528.59375 257.6407Q529.0625 257.24225 529.0625 256.711Q529.0625 256.24225 528.65625 255.961Q528.3594 255.7735 527.21875 255.49225Q525.6719 255.10162 525.0703 254.81256Q524.46875 254.5235 524.16406 254.0235Q523.8594 253.5235 523.8594 252.91412Q523.8594 252.35162 524.1094 251.88287Q524.3594 251.41412 524.7969 251.10162Q525.125 250.85162 525.6953 250.68756Q526.2656 250.5235 526.90625 250.5235Q527.8906 250.5235 528.625 250.80475Q529.3594 251.086 529.71094 251.56256Q530.0625 252.03912 530.2031 252.85162L528.8281 253.03912Q528.7344 252.3985 528.28125 252.03912Q527.8281 251.67975 527.0156 251.67975Q526.0469 251.67975 525.6328 252.00006Q525.21875 252.32037 525.21875 252.74225Q525.21875 253.0235 525.3906 253.24225Q525.5625 253.461 525.9219 253.61725Q526.1406 253.69537 527.1719 253.97662Q528.65625 254.36725 529.25 254.62506Q529.84375 254.88287 530.1797 255.36725Q530.5156 255.85162 530.5156 256.57037Q530.5156 257.2735 530.10156 257.8907Q529.6875 258.50787 528.91406 258.85162Q528.1406 259.19537 527.1719 259.19537Q525.5469 259.19537 524.7031 258.5235Q523.8594 257.85162 523.625 256.5235Z" fill-rule="nonzero" fill="#000000"></path><path d="M513.0 192.00787L513.0 192.00787C513.0 183.17131 520.16345 176.00787 529.0 176.00787L529.0 176.00787C533.24347 176.00787 537.3131 177.69359 540.3137 180.69417C543.3143 183.69475 545.0 187.7644 545.0 192.00787L545.0 192.00787C545.0 200.84444 537.83655 208.00787 529.0 208.00787L529.0 208.00787C520.16345 208.00787 513.0 200.84444 513.0 192.00787Z" fill-rule="nonzero" fill="#cfe2f3" stroke="#073763" stroke-width="2.0" stroke-linejoin="round" stroke-linecap="butt"></path><path d="M513.0 144.00787L513.0 144.00787C513.0 135.17131 520.16345 128.00787 529.0 128.00787L529.0 128.00787C533.24347 128.00787 537.3131 129.69359 540.3137 132.69417C543.3143 135.69475 545.0 139.7644 545.0 144.00787L545.0 144.00787C545.0 152.84444 537.83655 160.00787 529.0 160.00787L529.0 160.00787C520.16345 160.00787 513.0 152.84444 513.0 144.00787Z" fill-rule="nonzero" fill="#cfe2f3" stroke="#073763" stroke-width="2.0" stroke-linejoin="round" stroke-linecap="butt"></path><path d="M153.50015 152.00787L153.50015 152.00787C149.9104 152.00787 147.00032 159.17131 147.00032 168.00787C147.00032 176.84444 149.9104 184.00787 153.50015 184.00787L46.499836 184.00787C42.910072 184.00787 39.999996 176.84444 39.999996 168.00787C39.999996 159.17131 42.910072 152.00787 46.499836 152.00787Z" fill-rule="nonzero" fill="#ffffff"></path><path d="M153.50015 152.00787L153.50015 152.00787C157.08992 152.00787 160.0 159.17131 160.0 168.00787C160.0 176.84444 157.08992 184.00787 153.50015 184.00787L153.50015 184.00787C149.9104 184.00787 147.00032 176.84444 147.00032 168.00787C147.00032 159.17131 149.9104 152.00787 153.50015 152.00787Z" fill-rule="nonzero" fill="#ffffff"></path><path d="M153.50015 184.00787L153.50015 184.00787C149.9104 184.00787 147.00032 176.84444 147.00032 168.00787C147.00032 159.17131 149.9104 152.00787 153.50015 152.00787L153.50015 152.00787C157.08992 152.00787 160.0 159.17131 160.0 168.00787C160.0 176.84444 157.08992 184.00787 153.50015 184.00787L46.499836 184.00787C42.910072 184.00787 39.999996 176.84444 39.999996 168.00787C39.999996 159.17131 42.910072 152.00787 46.499836 152.00787L153.50015 152.00787" fill-rule="nonzero" stroke="#073763" stroke-width="2.0" stroke-linejoin="round" stroke-linecap="butt"></path><path d="M68.1875 174.50787L68.1875 164.6485L69.6875 164.6485L69.6875 166.1485Q70.265625 165.10162 70.75 164.76569Q71.234375 164.42975 71.828125 164.42975Q72.671875 164.42975 73.546875 164.97662L72.96875 166.5235Q72.359375 166.16412 71.734375 166.16412Q71.1875 166.16412 70.75781 166.49225Q70.328125 166.82037 70.140625 167.3985Q69.859375 168.28912 69.859375 169.35162L69.859375 174.50787L68.1875 174.50787ZM74.890625 174.50787L74.890625 172.60162L76.796875 172.60162L76.796875 174.50787L74.890625 174.50787ZM79.609375 162.85162L79.609375 160.91412L81.265625 160.91412L81.265625 162.85162L79.609375 162.85162ZM77.484375 178.336L77.796875 176.91412Q78.296875 177.03912 78.59375 177.03912Q79.109375 177.03912 79.359375 176.70319Q79.609375 176.36725 79.609375 175.00787L79.609375 164.6485L81.265625 164.6485L81.265625 175.03912Q81.265625 176.86725 80.796875 177.586Q80.203125 178.50787 78.796875 178.50787Q78.125 178.50787 77.484375 178.336ZM83.125 169.586Q83.125 166.85162 84.65625 165.5235Q85.921875 164.42975 87.75 164.42975Q89.78125 164.42975 91.07031 165.76569Q92.359375 167.10162 92.359375 169.44537Q92.359375 171.35162 91.78906 172.43756Q91.21875 173.5235 90.13281 174.12506Q89.046875 174.72662 87.75 174.72662Q85.6875 174.72662 84.40625 173.3985Q83.125 172.07037 83.125 169.586ZM84.84375 169.586Q84.84375 171.47662 85.671875 172.41412Q86.5 173.35162 87.75 173.35162Q89.0 173.35162 89.82031 172.40631Q90.640625 171.461 90.640625 169.5235Q90.640625 167.69537 89.8125 166.75787Q88.984375 165.82037 87.75 165.82037Q86.5 165.82037 85.671875 166.75787Q84.84375 167.69537 84.84375 169.586ZM95.671875 174.50787L94.125 174.50787L94.125 160.91412L95.78125 160.91412L95.78125 165.75787Q96.84375 164.42975 98.484375 164.42975Q99.390625 164.42975 100.203125 164.79694Q101.015625 165.16412 101.53906 165.82819Q102.0625 166.49225 102.359375 167.42975Q102.65625 168.36725 102.65625 169.42975Q102.65625 171.961 101.40625 173.34381Q100.15625 174.72662 98.40625 174.72662Q96.65625 174.72662 95.671875 173.2735L95.671875 174.50787ZM95.65625 169.50787Q95.65625 171.2735 96.125 172.07037Q96.921875 173.35162 98.265625 173.35162Q99.359375 173.35162 100.15625 172.40631Q100.953125 171.461 100.953125 169.57037Q100.953125 167.6485 100.1875 166.72662Q99.421875 165.80475 98.34375 165.80475Q97.25 165.80475 96.453125 166.75787Q95.65625 167.711 95.65625 169.50787ZM103.828125 171.57037L105.484375 171.30475Q105.625 172.30475 106.25781 172.82819Q106.890625 173.35162 108.03125 173.35162Q109.1875 173.35162 109.74219 172.88287Q110.296875 172.41412 110.296875 171.78912Q110.296875 171.22662 109.8125 170.8985Q109.46875 170.67975 108.109375 170.336Q106.265625 169.86725 105.55469 169.53131Q104.84375 169.19537 104.47656 168.59381Q104.109375 167.99225 104.109375 167.2735Q104.109375 166.61725 104.41406 166.05475Q104.71875 165.49225 105.234375 165.11725Q105.625 164.836 106.296875 164.63287Q106.96875 164.42975 107.734375 164.42975Q108.90625 164.42975 109.78125 164.76569Q110.65625 165.10162 111.07031 165.67194Q111.484375 166.24225 111.640625 167.19537L110.015625 167.41412Q109.90625 166.66412 109.36719 166.23444Q108.828125 165.80475 107.859375 165.80475Q106.703125 165.80475 106.21875 166.18756Q105.734375 166.57037 105.734375 167.07037Q105.734375 167.3985 105.9375 167.66412Q106.140625 167.92975 106.578125 168.10162Q106.828125 168.19537 108.046875 168.53912Q109.8125 169.00787 110.515625 169.30475Q111.21875 169.60162 111.61719 170.17975Q112.015625 170.75787 112.015625 171.61725Q112.015625 172.44537 111.53125 173.18756Q111.046875 173.92975 110.125 174.32819Q109.203125 174.72662 108.046875 174.72662Q106.125 174.72662 105.11719 173.92975Q104.109375 173.13287 103.828125 171.57037ZM114.296875 174.50787L114.296875 172.60162L116.203125 172.60162L116.203125 174.50787L114.296875 174.50787ZM118.359375 163.3985L118.78125 162.086Q120.265625 162.60162 120.921875 162.99225Q120.75 161.30475 120.75 160.67975L122.09375 160.67975Q122.0625 161.586 121.875 162.97662Q122.828125 162.49225 124.0625 162.086L124.484375 163.3985Q123.3125 163.78912 122.1875 163.92975Q122.75 164.41412 123.78125 165.67975L122.671875 166.461Q122.125 165.72662 121.390625 164.47662Q120.703125 165.7735 120.1875 166.461L119.09375 165.67975Q120.171875 164.35162 120.625 163.92975Q119.4375 163.69537 118.359375 163.3985Z" fill-rule="nonzero" fill="#000000"></path><path d="M216.0 131.67491L216.0 131.67491C216.0 121.365395 224.35751 113.00787 234.66704 113.00787L309.33295 113.00787L309.33295 113.00787C314.28375 113.00787 319.0318 114.97457 322.53256 118.47533C326.0333 121.976074 328.0 126.724106 328.0 131.67491L328.0 261.33295C328.0 271.6425 319.6425 280.0 309.33295 280.0L234.66704 280.0C224.35751 280.0 216.0 271.6425 216.0 261.33295Z" fill-rule="nonzero" fill="#ffffff" stroke="#073763" stroke-width="2.0" stroke-linejoin="round" stroke-linecap="butt"></path><path d="M256.46875 215.75787L257.82812 215.57037Q257.89062 216.88287 258.32812 217.36725Q258.76562 217.85162 259.53125 217.85162Q260.10938 217.85162 260.52344 217.586Q260.9375 217.32037 261.09375 216.87506Q261.25 216.42975 261.25 215.44537L261.25 207.55475L262.76562 207.55475L262.76562 215.35162Q262.76562 216.78912 262.41406 217.57819Q262.0625 218.36725 261.3125 218.78912Q260.5625 219.211 259.54688 219.211Q258.03125 219.211 257.23438 218.336Q256.4375 217.461 256.46875 215.75787ZM265.1875 219.00787L265.1875 207.55475L267.46875 207.55475L270.1875 215.66412Q270.5625 216.78912 270.73438 217.35162Q270.92188 216.72662 271.34375 215.5235L274.07812 207.55475L276.125 207.55475L276.125 219.00787L274.65625 219.00787L274.65625 209.41412L271.32812 219.00787L269.96875 219.00787L266.65625 209.25787L266.65625 219.00787L265.1875 219.00787ZM278.04688 215.32037L279.48438 215.19537Q279.57812 216.05475 279.95312 216.60944Q280.32812 217.16412 281.10938 217.50006Q281.89062 217.836 282.85938 217.836Q283.73438 217.836 284.39844 217.57819Q285.0625 217.32037 285.3828 216.87506Q285.70312 216.42975 285.70312 215.8985Q285.70312 215.35162 285.39062 214.95319Q285.07812 214.55475 284.35938 214.2735Q283.90625 214.10162 282.32812 213.71881Q280.75 213.336 280.10938 213.00787Q279.29688 212.57037 278.89062 211.93756Q278.48438 211.30475 278.48438 210.50787Q278.48438 209.6485 278.97656 208.89069Q279.46875 208.13287 280.41406 207.74225Q281.35938 207.35162 282.51562 207.35162Q283.79688 207.35162 284.76562 207.76569Q285.73438 208.17975 286.2578 208.97662Q286.78125 209.7735 286.82812 210.7735L285.375 210.88287Q285.25 209.80475 284.57812 209.25006Q283.90625 208.69537 282.57812 208.69537Q281.20312 208.69537 280.57812 209.19537Q279.95312 209.69537 279.95312 210.41412Q279.95312 211.0235 280.39062 211.42975Q280.82812 211.82037 282.6797 212.24225Q284.53125 212.66412 285.21875 212.97662Q286.21875 213.42975 286.6953 214.14069Q287.17188 214.85162 287.17188 215.7735Q287.17188 216.67975 286.64844 217.49225Q286.125 218.30475 285.14062 218.75787Q284.15625 219.211 282.9375 219.211Q281.375 219.211 280.32812 218.75006Q279.28125 218.28912 278.6797 217.38287Q278.07812 216.47662 278.04688 215.32037Z" fill-rule="nonzero" fill="#000000"></path><path d="M236.125 237.00787L236.125 226.8985L232.34375 226.8985L232.34375 225.55475L241.42188 225.55475L241.42188 226.8985L237.64062 226.8985L237.64062 237.00787L236.125 237.00787ZM242.79688 237.00787L242.79688 228.711L244.0625 228.711L244.0625 229.961Q244.54688 229.086 244.95312 228.80475Q245.35938 228.5235 245.85938 228.5235Q246.5625 228.5235 247.29688 228.97662L246.8125 230.2735Q246.29688 229.97662 245.78125 229.97662Q245.32812 229.97662 244.96094 230.25006Q244.59375 230.5235 244.4375 231.0235Q244.20312 231.7735 244.20312 232.66412L244.20312 237.00787L242.79688 237.00787ZM253.54688 235.97662Q252.76562 236.6485 252.04688 236.92194Q251.32812 237.19537 250.5 237.19537Q249.125 237.19537 248.39062 236.5235Q247.65625 235.85162 247.65625 234.82037Q247.65625 234.211 247.9375 233.70319Q248.21875 233.19537 248.66406 232.89069Q249.10938 232.586 249.67188 232.42975Q250.09375 232.32037 250.92188 232.22662Q252.625 232.0235 253.4375 231.74225Q253.4375 231.44537 253.4375 231.36725Q253.4375 230.50787 253.04688 230.16412Q252.5 229.67975 251.4375 229.67975Q250.45312 229.67975 249.97656 230.03131Q249.5 230.38287 249.28125 231.25787L247.90625 231.07037Q248.09375 230.19537 248.52344 229.6485Q248.95312 229.10162 249.76562 228.81256Q250.57812 228.5235 251.64062 228.5235Q252.70312 228.5235 253.36719 228.7735Q254.03125 229.0235 254.34375 229.3985Q254.65625 229.7735 254.78125 230.35162Q254.85938 230.711 254.85938 231.6485L254.85938 233.5235Q254.85938 235.49225 254.94531 236.00787Q255.03125 236.5235 255.29688 237.00787L253.82812 237.00787Q253.60938 236.57037 253.54688 235.97662ZM253.4375 232.836Q252.67188 233.1485 251.14062 233.36725Q250.26562 233.49225 249.90625 233.6485Q249.54688 233.80475 249.35156 234.10944Q249.15625 234.41412 249.15625 234.7735Q249.15625 235.336 249.58594 235.711Q250.01562 236.086 250.82812 236.086Q251.64062 236.086 252.27344 235.73444Q252.90625 235.38287 253.20312 234.75787Q253.4375 234.28912 253.4375 233.35162L253.4375 232.836ZM257.03125 237.00787L257.03125 228.711L258.29688 228.711L258.29688 229.88287Q259.20312 228.5235 260.9375 228.5235Q261.6875 228.5235 262.3125 228.78912Q262.9375 229.05475 263.25 229.49225Q263.5625 229.92975 263.6875 230.53912Q263.76562 230.92975 263.76562 231.8985L263.76562 237.00787L262.35938 237.00787L262.35938 231.961Q262.35938 231.10162 262.1953 230.67194Q262.03125 230.24225 261.6172 229.99225Q261.20312 229.74225 260.64062 229.74225Q259.73438 229.74225 259.08594 230.31256Q258.4375 230.88287 258.4375 232.47662L258.4375 237.00787L257.03125 237.00787ZM265.375 234.5235L266.76562 234.30475Q266.875 235.1485 267.41406 235.59381Q267.95312 236.03912 268.90625 236.03912Q269.875 236.03912 270.34375 235.64069Q270.8125 235.24225 270.8125 234.711Q270.8125 234.24225 270.40625 233.961Q270.10938 233.7735 268.96875 233.49225Q267.42188 233.10162 266.8203 232.81256Q266.21875 232.5235 265.91406 232.0235Q265.60938 231.5235 265.60938 230.91412Q265.60938 230.35162 265.85938 229.88287Q266.10938 229.41412 266.54688 229.10162Q266.875 228.85162 267.4453 228.68756Q268.01562 228.5235 268.65625 228.5235Q269.64062 228.5235 270.375 228.80475Q271.10938 229.086 271.46094 229.56256Q271.8125 230.03912 271.95312 230.85162L270.57812 231.03912Q270.48438 230.3985 270.03125 230.03912Q269.57812 229.67975 268.76562 229.67975Q267.79688 229.67975 267.3828 230.00006Q266.96875 230.32037 266.96875 230.74225Q266.96875 231.0235 267.14062 231.24225Q267.3125 231.461 267.67188 231.61725Q267.89062 231.69537 268.92188 231.97662Q270.40625 232.36725 271.0 232.62506Q271.59375 232.88287 271.9297 233.36725Q272.26562 233.85162 272.26562 234.57037Q272.26562 235.2735 271.85156 235.89069Q271.4375 236.50787 270.66406 236.85162Q269.89062 237.19537 268.92188 237.19537Q267.29688 237.19537 266.45312 236.5235Q265.60938 235.85162 265.375 234.5235ZM279.34375 235.97662Q278.5625 236.6485 277.84375 236.92194Q277.125 237.19537 276.29688 237.19537Q274.92188 237.19537 274.1875 236.5235Q273.45312 235.85162 273.45312 234.82037Q273.45312 234.211 273.73438 233.70319Q274.01562 233.19537 274.46094 232.89069Q274.90625 232.586 275.46875 232.42975Q275.89062 232.32037 276.71875 232.22662Q278.42188 232.0235 279.23438 231.74225Q279.23438 231.44537 279.23438 231.36725Q279.23438 230.50787 278.84375 230.16412Q278.29688 229.67975 277.23438 229.67975Q276.25 229.67975 275.77344 230.03131Q275.29688 230.38287 275.07812 231.25787L273.70312 231.07037Q273.89062 230.19537 274.3203 229.6485Q274.75 229.10162 275.5625 228.81256Q276.375 228.5235 277.4375 228.5235Q278.5 228.5235 279.16406 228.7735Q279.82812 229.0235 280.14062 229.3985Q280.45312 229.7735 280.57812 230.35162Q280.65625 230.711 280.65625 231.6485L280.65625 233.5235Q280.65625 235.49225 280.7422 236.00787Q280.82812 236.5235 281.09375 237.00787L279.625 237.00787Q279.40625 236.57037 279.34375 235.97662ZM279.23438 232.836Q278.46875 233.1485 276.9375 233.36725Q276.0625 233.49225 275.70312 233.6485Q275.34375 233.80475 275.14844 234.10944Q274.95312 234.41412 274.95312 234.7735Q274.95312 235.336 275.3828 235.711Q275.8125 236.086 276.625 236.086Q277.4375 236.086 278.0703 235.73444Q278.70312 235.38287 279.0 234.75787Q279.23438 234.28912 279.23438 233.35162L279.23438 232.836ZM288.23438 233.961L289.625 234.1485Q289.39062 235.57037 288.46094 236.38287Q287.53125 237.19537 286.17188 237.19537Q284.46875 237.19537 283.4297 236.07819Q282.39062 234.961 282.39062 232.88287Q282.39062 231.53912 282.83594 230.53131Q283.28125 229.5235 284.1953 229.0235Q285.10938 228.5235 286.17188 228.5235Q287.53125 228.5235 288.39062 229.20319Q289.25 229.88287 289.48438 231.1485L288.125 231.35162Q287.92188 230.5235 287.4297 230.10162Q286.9375 229.67975 286.23438 229.67975Q285.17188 229.67975 284.5078 230.43756Q283.84375 231.19537 283.84375 232.85162Q283.84375 234.5235 284.48438 235.28131Q285.125 236.03912 286.15625 236.03912Q286.98438 236.03912 287.53906 235.53131Q288.09375 235.0235 288.23438 233.961ZM293.89062 235.74225L294.09375 236.99225Q293.5 237.11725 293.03125 237.11725Q292.26562 237.11725 291.84375 236.87506Q291.42188 236.63287 291.25 236.23444Q291.07812 235.836 291.07812 234.57037L291.07812 229.80475L290.04688 229.80475L290.04688 228.711L291.07812 228.711L291.07812 226.6485L292.48438 225.80475L292.48438 228.711L293.89062 228.711L293.89062 229.80475L292.48438 229.80475L292.48438 234.6485Q292.48438 235.25787 292.5547 235.42975Q292.625 235.60162 292.79688 235.70319Q292.96875 235.80475 293.28125 235.80475Q293.51562 235.80475 293.89062 235.74225ZM300.95312 234.336L302.40625 234.50787Q302.0625 235.78912 301.1328 236.49225Q300.20312 237.19537 298.76562 237.19537Q296.9375 237.19537 295.875 236.07037Q294.8125 234.94537 294.8125 232.92975Q294.8125 230.836 295.89062 229.67975Q296.96875 228.5235 298.6875 228.5235Q300.34375 228.5235 301.39844 229.65631Q302.45312 230.78912 302.45312 232.836Q302.45312 232.961 302.45312 233.211L296.26562 233.211Q296.34375 234.586 297.03906 235.31256Q297.73438 236.03912 298.76562 236.03912Q299.54688 236.03912 300.09375 235.63287Q300.64062 235.22662 300.95312 234.336ZM296.34375 232.05475L300.96875 232.05475Q300.875 231.00787 300.4375 230.49225Q299.76562 229.67975 298.70312 229.67975Q297.73438 229.67975 297.0703 230.32819Q296.40625 230.97662 296.34375 232.05475ZM309.54688 237.00787L309.54688 235.961Q308.76562 237.19537 307.23438 237.19537Q306.23438 237.19537 305.40625 236.6485Q304.57812 236.10162 304.1172 235.11725Q303.65625 234.13287 303.65625 232.86725Q303.65625 231.61725 304.0703 230.60944Q304.48438 229.60162 305.3125 229.06256Q306.14062 228.5235 307.17188 228.5235Q307.92188 228.5235 308.5078 228.836Q309.09375 229.1485 309.45312 229.66412L309.45312 225.55475L310.85938 225.55475L310.85938 237.00787L309.54688 237.00787ZM305.10938 232.86725Q305.10938 234.461 305.78125 235.25006Q306.45312 236.03912 307.35938 236.03912Q308.28125 236.03912 308.9297 235.28131Q309.57812 234.5235 309.57812 232.97662Q309.57812 231.2735 308.92188 230.47662Q308.26562 229.67975 307.29688 229.67975Q306.35938 229.67975 305.73438 230.44537Q305.10938 231.211 305.10938 232.86725Z" fill-rule="nonzero" fill="#000000"></path><path d="M240.71875 255.00787L240.71875 243.55475L243.0 243.55475L245.71875 251.66412Q246.09375 252.78912 246.26562 253.35162Q246.45312 252.72662 246.875 251.5235L249.60938 243.55475L251.65625 243.55475L251.65625 255.00787L250.1875 255.00787L250.1875 245.41412L246.85938 255.00787L245.5 255.00787L242.1875 245.25787L242.1875 255.00787L240.71875 255.00787ZM259.59375 252.336L261.04688 252.50787Q260.70312 253.78912 259.77344 254.49225Q258.84375 255.19537 257.40625 255.19537Q255.57812 255.19537 254.51562 254.07037Q253.45312 252.94537 253.45312 250.92975Q253.45312 248.836 254.53125 247.67975Q255.60938 246.5235 257.32812 246.5235Q258.98438 246.5235 260.03906 247.65631Q261.09375 248.78912 261.09375 250.836Q261.09375 250.961 261.09375 251.211L254.90625 251.211Q254.98438 252.586 255.67969 253.31256Q256.375 254.03912 257.40625 254.03912Q258.1875 254.03912 258.73438 253.63287Q259.28125 253.22662 259.59375 252.336ZM254.98438 250.05475L259.60938 250.05475Q259.51562 249.00787 259.07812 248.49225Q258.40625 247.67975 257.34375 247.67975Q256.375 247.67975 255.71094 248.32819Q255.04688 248.97662 254.98438 250.05475ZM262.26562 252.5235L263.65625 252.30475Q263.76562 253.1485 264.3047 253.59381Q264.84375 254.03912 265.79688 254.03912Q266.76562 254.03912 267.23438 253.64069Q267.70312 253.24225 267.70312 252.711Q267.70312 252.24225 267.29688 251.961Q267.0 251.7735 265.85938 251.49225Q264.3125 251.10162 263.71094 250.81256Q263.10938 250.5235 262.8047 250.0235Q262.5 249.5235 262.5 248.91412Q262.5 248.35162 262.75 247.88287Q263.0 247.41412 263.4375 247.10162Q263.76562 246.85162 264.33594 246.68756Q264.90625 246.5235 265.54688 246.5235Q266.53125 246.5235 267.26562 246.80475Q268.0 247.086 268.35156 247.56256Q268.70312 248.03912 268.84375 248.85162L267.46875 249.03912Q267.375 248.3985 266.92188 248.03912Q266.46875 247.67975 265.65625 247.67975Q264.6875 247.67975 264.27344 248.00006Q263.85938 248.32037 263.85938 248.74225Q263.85938 249.0235 264.03125 249.24225Q264.20312 249.461 264.5625 249.61725Q264.78125 249.69537 265.8125 249.97662Q267.29688 250.36725 267.89062 250.62506Q268.48438 250.88287 268.8203 251.36725Q269.15625 251.85162 269.15625 252.57037Q269.15625 253.2735 268.7422 253.89069Q268.32812 254.50787 267.5547 254.85162Q266.78125 255.19537 265.8125 255.19537Q264.1875 255.19537 263.34375 254.5235Q262.5 253.85162 262.26562 252.5235ZM270.26562 252.5235L271.65625 252.30475Q271.76562 253.1485 272.3047 253.59381Q272.84375 254.03912 273.79688 254.03912Q274.76562 254.03912 275.23438 253.64069Q275.70312 253.24225 275.70312 252.711Q275.70312 252.24225 275.29688 251.961Q275.0 251.7735 273.85938 251.49225Q272.3125 251.10162 271.71094 250.81256Q271.10938 250.5235 270.8047 250.0235Q270.5 249.5235 270.5 248.91412Q270.5 248.35162 270.75 247.88287Q271.0 247.41412 271.4375 247.10162Q271.76562 246.85162 272.33594 246.68756Q272.90625 246.5235 273.54688 246.5235Q274.53125 246.5235 275.26562 246.80475Q276.0 247.086 276.35156 247.56256Q276.70312 248.03912 276.84375 248.85162L275.46875 249.03912Q275.375 248.3985 274.92188 248.03912Q274.46875 247.67975 273.65625 247.67975Q272.6875 247.67975 272.27344 248.00006Q271.85938 248.32037 271.85938 248.74225Q271.85938 249.0235 272.03125 249.24225Q272.20312 249.461 272.5625 249.61725Q272.78125 249.69537 273.8125 249.97662Q275.29688 250.36725 275.89062 250.62506Q276.48438 250.88287 276.8203 251.36725Q277.15625 251.85162 277.15625 252.57037Q277.15625 253.2735 276.7422 253.89069Q276.32812 254.50787 275.5547 254.85162Q274.78125 255.19537 273.8125 255.19537Q272.1875 255.19537 271.34375 254.5235Q270.5 253.85162 270.26562 252.5235ZM284.23438 253.97662Q283.45312 254.6485 282.73438 254.92194Q282.01562 255.19537 281.1875 255.19537Q279.8125 255.19537 279.07812 254.5235Q278.34375 253.85162 278.34375 252.82037Q278.34375 252.211 278.625 251.70319Q278.90625 251.19537 279.35156 250.89069Q279.79688 250.586 280.35938 250.42975Q280.78125 250.32037 281.60938 250.22662Q283.3125 250.0235 284.125 249.74225Q284.125 249.44537 284.125 249.36725Q284.125 248.50787 283.73438 248.16412Q283.1875 247.67975 282.125 247.67975Q281.14062 247.67975 280.66406 248.03131Q280.1875 248.38287 279.96875 249.25787L278.59375 249.07037Q278.78125 248.19537 279.21094 247.6485Q279.64062 247.10162 280.45312 246.81256Q281.26562 246.5235 282.32812 246.5235Q283.39062 246.5235 284.0547 246.7735Q284.71875 247.0235 285.03125 247.3985Q285.34375 247.7735 285.46875 248.35162Q285.54688 248.711 285.54688 249.6485L285.54688 251.5235Q285.54688 253.49225 285.6328 254.00787Q285.71875 254.5235 285.98438 255.00787L284.51562 255.00787Q284.29688 254.57037 284.23438 253.97662ZM284.125 250.836Q283.35938 251.1485 281.82812 251.36725Q280.95312 251.49225 280.59375 251.6485Q280.23438 251.80475 280.03906 252.10944Q279.84375 252.41412 279.84375 252.7735Q279.84375 253.336 280.27344 253.711Q280.70312 254.086 281.51562 254.086Q282.32812 254.086 282.96094 253.73444Q283.59375 253.38287 283.89062 252.75787Q284.125 252.28912 284.125 251.35162L284.125 250.836ZM287.45312 255.69537L288.82812 255.8985Q288.90625 256.53912 289.29688 256.82037Q289.82812 257.211 290.73438 257.211Q291.70312 257.211 292.23438 256.82037Q292.76562 256.42975 292.95312 255.72662Q293.0625 255.30475 293.0625 253.91412Q292.14062 255.00787 290.76562 255.00787Q289.04688 255.00787 288.10938 253.7735Q287.17188 252.53912 287.17188 250.80475Q287.17188 249.61725 287.60156 248.61725Q288.03125 247.61725 288.85156 247.07037Q289.67188 246.5235 290.76562 246.5235Q292.23438 246.5235 293.1875 247.711L293.1875 246.711L294.48438 246.711L294.48438 253.88287Q294.48438 255.82037 294.09375 256.63287Q293.70312 257.44537 292.84375 257.91412Q291.98438 258.38287 290.73438 258.38287Q289.25 258.38287 288.33594 257.711Q287.42188 257.03912 287.45312 255.69537ZM288.625 250.711Q288.625 252.336 289.27344 253.086Q289.92188 253.836 290.89062 253.836Q291.85938 253.836 292.51562 253.09381Q293.17188 252.35162 293.17188 250.75787Q293.17188 249.22662 292.5 248.45319Q291.82812 247.67975 290.875 247.67975Q289.9375 247.67975 289.28125 248.44537Q288.625 249.211 288.625 250.711ZM302.29688 252.336L303.75 252.50787Q303.40625 253.78912 302.47656 254.49225Q301.54688 255.19537 300.10938 255.19537Q298.28125 255.19537 297.21875 254.07037Q296.15625 252.94537 296.15625 250.92975Q296.15625 248.836 297.23438 247.67975Q298.3125 246.5235 300.03125 246.5235Q301.6875 246.5235 302.7422 247.65631Q303.79688 248.78912 303.79688 250.836Q303.79688 250.961 303.79688 251.211L297.60938 251.211Q297.6875 252.586 298.3828 253.31256Q299.07812 254.03912 300.10938 254.03912Q300.89062 254.03912 301.4375 253.63287Q301.98438 253.22662 302.29688 252.336ZM297.6875 250.05475L302.3125 250.05475Q302.21875 249.00787 301.78125 248.49225Q301.10938 247.67975 300.04688 247.67975Q299.07812 247.67975 298.41406 248.32819Q297.75 248.97662 297.6875 250.05475Z" fill-rule="nonzero" fill="#000000"></path><path d="M237.6875 273.00787L237.6875 261.55475L242.76562 261.55475Q244.29688 261.55475 245.09375 261.85944Q245.89062 262.16412 246.36719 262.94537Q246.84375 263.72662 246.84375 264.67975Q246.84375 265.8985 246.05469 266.73444Q245.26562 267.57037 243.60938 267.78912Q244.21875 268.086 244.53125 268.36725Q245.1875 268.97662 245.78125 269.88287L247.78125 273.00787L245.875 273.00787L244.35938 270.61725Q243.6875 269.586 243.25781 269.03912Q242.82812 268.49225 242.49219 268.2735Q242.15625 268.05475 241.79688 267.97662Q241.54688 267.91412 240.95312 267.91412L239.20312 267.91412L239.20312 273.00787L237.6875 273.00787ZM239.20312 266.60162L242.45312 266.60162Q243.5 266.60162 244.08594 266.3907Q244.67188 266.17975 244.97656 265.7032Q245.28125 265.22662 245.28125 264.67975Q245.28125 263.86725 244.6875 263.3438Q244.09375 262.82037 242.82812 262.82037L239.20312 262.82037L239.20312 266.60162ZM254.71875 270.336L256.17188 270.50787Q255.82812 271.78912 254.89844 272.49225Q253.96875 273.19537 252.53125 273.19537Q250.70312 273.19537 249.64062 272.07037Q248.57812 270.94537 248.57812 268.92975Q248.57812 266.836 249.65625 265.67975Q250.73438 264.5235 252.45312 264.5235Q254.10938 264.5235 255.16406 265.6563Q256.21875 266.78912 256.21875 268.836Q256.21875 268.961 256.21875 269.211L250.03125 269.211Q250.10938 270.586 250.80469 271.31256Q251.5 272.03912 252.53125 272.03912Q253.3125 272.03912 253.85938 271.63287Q254.40625 271.22662 254.71875 270.336ZM250.10938 268.05475L254.73438 268.05475Q254.64062 267.00787 254.20312 266.49225Q253.53125 265.67975 252.46875 265.67975Q251.5 265.67975 250.83594 266.3282Q250.17188 266.97662 250.10938 268.05475ZM263.34375 269.961L264.73438 270.1485Q264.5 271.57037 263.5703 272.38287Q262.64062 273.19537 261.28125 273.19537Q259.57812 273.19537 258.53906 272.0782Q257.5 270.961 257.5 268.88287Q257.5 267.53912 257.9453 266.5313Q258.39062 265.5235 259.3047 265.0235Q260.21875 264.5235 261.28125 264.5235Q262.64062 264.5235 263.5 265.2032Q264.35938 265.88287 264.59375 267.1485L263.23438 267.35162Q263.03125 266.5235 262.53906 266.10162Q262.04688 265.67975 261.34375 265.67975Q260.28125 265.67975 259.6172 266.43756Q258.95312 267.19537 258.95312 268.85162Q258.95312 270.5235 259.59375 271.2813Q260.23438 272.03912 261.26562 272.03912Q262.09375 272.03912 262.64844 271.5313Q263.20312 271.0235 263.34375 269.961ZM271.60938 270.336L273.0625 270.50787Q272.71875 271.78912 271.78906 272.49225Q270.85938 273.19537 269.42188 273.19537Q267.59375 273.19537 266.53125 272.07037Q265.46875 270.94537 265.46875 268.92975Q265.46875 266.836 266.54688 265.67975Q267.625 264.5235 269.34375 264.5235Q271.0 264.5235 272.0547 265.6563Q273.10938 266.78912 273.10938 268.836Q273.10938 268.961 273.10938 269.211L266.92188 269.211Q267.0 270.586 267.6953 271.31256Q268.39062 272.03912 269.42188 272.03912Q270.20312 272.03912 270.75 271.63287Q271.29688 271.22662 271.60938 270.336ZM267.0 268.05475L271.625 268.05475Q271.53125 267.00787 271.09375 266.49225Q270.42188 265.67975 269.35938 265.67975Q268.39062 265.67975 267.72656 266.3282Q267.0625 266.97662 267.0 268.05475ZM274.84375 263.16412L274.84375 261.55475L276.25 261.55475L276.25 263.16412L274.84375 263.16412ZM274.84375 273.00787L274.84375 264.711L276.25 264.711L276.25 273.00787L274.84375 273.00787ZM280.6875 273.00787L277.53125 264.711L279.01562 264.711L280.79688 269.67975Q281.09375 270.47662 281.32812 271.35162Q281.51562 270.69537 281.85938 269.7735L283.70312 264.711L285.14062 264.711L282.0 273.00787L280.6875 273.00787ZM292.0625 270.336L293.51562 270.50787Q293.17188 271.78912 292.2422 272.49225Q291.3125 273.19537 289.875 273.19537Q288.04688 273.19537 286.98438 272.07037Q285.92188 270.94537 285.92188 268.92975Q285.92188 266.836 287.0 265.67975Q288.07812 264.5235 289.79688 264.5235Q291.45312 264.5235 292.5078 265.6563Q293.5625 266.78912 293.5625 268.836Q293.5625 268.961 293.5625 269.211L287.375 269.211Q287.45312 270.586 288.14844 271.31256Q288.84375 272.03912 289.875 272.03912Q290.65625 272.03912 291.20312 271.63287Q291.75 271.22662 292.0625 270.336ZM287.45312 268.05475L292.07812 268.05475Q291.98438 267.00787 291.54688 266.49225Q290.875 265.67975 289.8125 265.67975Q288.84375 265.67975 288.1797 266.3282Q287.51562 266.97662 287.45312 268.05475ZM295.28125 273.00787L295.28125 264.711L296.54688 264.711L296.54688 265.961Q297.03125 265.086 297.4375 264.80475Q297.84375 264.5235 298.34375 264.5235Q299.04688 264.5235 299.78125 264.97662L299.29688 266.2735Q298.78125 265.97662 298.26562 265.97662Q297.8125 265.97662 297.4453 266.25006Q297.07812 266.5235 296.92188 267.0235Q296.6875 267.7735 296.6875 268.66412L296.6875 273.00787L295.28125 273.00787ZM300.0625 270.5235L301.45312 270.30475Q301.5625 271.1485 302.10156 271.5938Q302.64062 272.03912 303.59375 272.03912Q304.5625 272.03912 305.03125 271.6407Q305.5 271.24225 305.5 270.711Q305.5 270.24225 305.09375 269.961Q304.79688 269.7735 303.65625 269.49225Q302.10938 269.10162 301.5078 268.81256Q300.90625 268.5235 300.60156 268.0235Q300.29688 267.5235 300.29688 266.91412Q300.29688 266.35162 300.54688 265.88287Q300.79688 265.41412 301.23438 265.10162Q301.5625 264.85162 302.1328 264.68756Q302.70312 264.5235 303.34375 264.5235Q304.32812 264.5235 305.0625 264.80475Q305.79688 265.086 306.14844 265.56256Q306.5 266.03912 306.64062 266.85162L305.26562 267.03912Q305.17188 266.3985 304.71875 266.03912Q304.26562 265.67975 303.45312 265.67975Q302.48438 265.67975 302.0703 266.00006Q301.65625 266.32037 301.65625 266.74225Q301.65625 267.0235 301.82812 267.24225Q302.0 267.461 302.35938 267.61725Q302.57812 267.69537 303.60938 267.97662Q305.09375 268.36725 305.6875 268.62506Q306.28125 268.88287 306.6172 269.36725Q306.95312 269.85162 306.95312 270.57037Q306.95312 271.2735 306.53906 271.8907Q306.125 272.50787 305.35156 272.85162Q304.57812 273.19537 303.60938 273.19537Q301.98438 273.19537 301.14062 272.5235Q300.29688 271.85162 300.0625 270.5235Z" fill-rule="nonzero" fill="#000000"></path><path d="M165.0 160.00787L193.0 160.00787L193.0 154.00787L205.0 166.00787L193.0 178.00787L193.0 172.00787L165.0 172.00787Z" fill-rule="nonzero" fill="#ffffff" stroke="#073763" stroke-width="2.0" stroke-linejoin="round" stroke-linecap="butt"></path><path d="M232.0 144.00787L248.0 128.00787L264.0 144.00787L248.0 160.00787Z" fill-rule="nonzero" fill="#cfe2f3" stroke="#073763" stroke-width="2.0" stroke-linejoin="round" stroke-linecap="butt"></path><path d="M280.0 144.00787L296.0 128.00787L312.0 144.00787L296.0 160.00787Z" fill-rule="nonzero" fill="#cfe2f3" stroke="#073763" stroke-width="2.0" stroke-linejoin="round" stroke-linecap="butt"></path><path d="M280.0 192.00787L296.0 176.00787L312.0 192.00787L296.0 208.00787Z" fill-rule="nonzero" fill="#cfe2f3" stroke="#073763" stroke-width="2.0" stroke-linejoin="round" stroke-linecap="butt"></path><path d="M232.0 192.00787L248.0 176.00787L264.0 192.00787L248.0 208.00787Z" fill-rule="nonzero" fill="#cfe2f3" stroke="#073763" stroke-width="2.0" stroke-linejoin="round" stroke-linecap="butt"></path><path d="M226.0 125.0L552.01575 125.0L552.01575 215.99213L226.0 215.99213Z" fill-rule="nonzero" stroke="#000000" stroke-width="1.0" stroke-linejoin="round" stroke-linecap="butt" stroke-dasharray="1.0,3.0"></path><path d="M350.60938 163.71875L351.84375 163.89062Q351.25 165.51562 350.1328 166.33594Q349.01562 167.15625 347.625 167.15625Q345.9375 167.15625 344.9453 166.125Q343.95312 165.09375 343.95312 163.15625Q343.95312 160.64062 345.45312 159.0Q346.79688 157.53125 348.79688 157.53125Q350.28125 157.53125 351.1953 158.32812Q352.10938 159.125 352.26562 160.46875L351.09375 160.5625Q350.92188 159.5625 350.34375 159.0625Q349.76562 158.5625 348.85938 158.5625Q347.15625 158.5625 346.09375 160.07812Q345.1875 161.39062 345.1875 163.1875Q345.1875 164.625 345.89062 165.375Q346.59375 166.125 347.71875 166.125Q348.6875 166.125 349.46875 165.5Q350.25 164.875 350.60938 163.71875ZM353.03125 164.4375Q353.03125 162.46875 354.1875 161.17188Q355.14062 160.10938 356.70312 160.10938Q357.92188 160.10938 358.66406 160.86719Q359.40625 161.625 359.40625 162.92188Q359.40625 164.09375 358.9375 165.08594Q358.46875 166.07812 357.60156 166.61719Q356.73438 167.15625 355.78125 167.15625Q355.0 167.15625 354.35156 166.82031Q353.70312 166.48438 353.3672 165.86719Q353.03125 165.25 353.03125 164.4375ZM354.17188 164.32812Q354.17188 165.28125 354.6328 165.77344Q355.09375 166.26562 355.79688 166.26562Q356.15625 166.26562 356.52344 166.11719Q356.89062 165.96875 357.1953 165.66406Q357.5 165.35938 357.71875 164.96875Q357.9375 164.57812 358.07812 164.125Q358.28125 163.5 358.28125 162.92188Q358.28125 162.0 357.8203 161.5Q357.35938 161.0 356.65625 161.0Q356.10938 161.0 355.67188 161.25781Q355.23438 161.51562 354.875 162.00781Q354.51562 162.5 354.34375 163.15625Q354.17188 163.8125 354.17188 164.32812ZM360.23438 167.0L361.64062 160.26562L362.79688 160.26562L362.5625 161.375Q363.20312 160.65625 363.71094 160.38281Q364.21875 160.10938 364.79688 160.10938Q365.4375 160.10938 365.85938 160.4375Q366.28125 160.76562 366.40625 161.375Q366.92188 160.73438 367.4922 160.42188Q368.0625 160.10938 368.6875 160.10938Q369.53125 160.10938 369.95312 160.50781Q370.375 160.90625 370.375 161.625Q370.375 161.9375 370.23438 162.65625L369.32812 167.0L368.17188 167.0L369.09375 162.54688Q369.21875 162.0 369.21875 161.76562Q369.21875 161.4375 369.0078 161.24219Q368.79688 161.04688 368.42188 161.04688Q367.90625 161.04688 367.375 161.35938Q366.84375 161.67188 366.54688 162.17969Q366.25 162.6875 366.03125 163.73438L365.34375 167.0L364.1875 167.0L365.14062 162.45312Q365.25 161.98438 365.25 161.78125Q365.25 161.45312 365.03906 161.25Q364.82812 161.04688 364.5 161.04688Q364.01562 161.04688 363.47656 161.35938Q362.9375 161.67188 362.60156 162.22656Q362.26562 162.78125 362.04688 163.8125L361.39062 167.0L360.23438 167.0ZM371.32812 167.0L372.73438 160.26562L373.89062 160.26562L373.65625 161.375Q374.29688 160.65625 374.8047 160.38281Q375.3125 160.10938 375.89062 160.10938Q376.53125 160.10938 376.95312 160.4375Q377.375 160.76562 377.5 161.375Q378.01562 160.73438 378.58594 160.42188Q379.15625 160.10938 379.78125 160.10938Q380.625 160.10938 381.04688 160.50781Q381.46875 160.90625 381.46875 161.625Q381.46875 161.9375 381.32812 162.65625L380.42188 167.0L379.26562 167.0L380.1875 162.54688Q380.3125 162.0 380.3125 161.76562Q380.3125 161.4375 380.10156 161.24219Q379.89062 161.04688 379.51562 161.04688Q379.0 161.04688 378.46875 161.35938Q377.9375 161.67188 377.64062 162.17969Q377.34375 162.6875 377.125 163.73438L376.4375 167.0L375.28125 167.0L376.23438 162.45312Q376.34375 161.98438 376.34375 161.78125Q376.34375 161.45312 376.1328 161.25Q375.92188 161.04688 375.59375 161.04688Q375.10938 161.04688 374.5703 161.35938Q374.03125 161.67188 373.6953 162.22656Q373.35938 162.78125 373.14062 163.8125L372.48438 167.0L371.32812 167.0ZM382.65625 164.4375Q382.65625 162.46875 383.8125 161.17188Q384.76562 160.10938 386.32812 160.10938Q387.54688 160.10938 388.28906 160.86719Q389.03125 161.625 389.03125 162.92188Q389.03125 164.09375 388.5625 165.08594Q388.09375 166.07812 387.22656 166.61719Q386.35938 167.15625 385.40625 167.15625Q384.625 167.15625 383.97656 166.82031Q383.32812 166.48438 382.9922 165.86719Q382.65625 165.25 382.65625 164.4375ZM383.79688 164.32812Q383.79688 165.28125 384.2578 165.77344Q384.71875 166.26562 385.42188 166.26562Q385.78125 166.26562 386.14844 166.11719Q386.51562 165.96875 386.8203 165.66406Q387.125 165.35938 387.34375 164.96875Q387.5625 164.57812 387.70312 164.125Q387.90625 163.5 387.90625 162.92188Q387.90625 162.0 387.4453 161.5Q386.98438 161.0 386.28125 161.0Q385.73438 161.0 385.29688 161.25781Q384.85938 161.51562 384.5 162.00781Q384.14062 162.5 383.96875 163.15625Q383.79688 163.8125 383.79688 164.32812ZM389.85938 167.0L391.26562 160.26562L392.29688 160.26562L392.0625 161.4375Q392.73438 160.73438 393.32812 160.42188Q393.92188 160.10938 394.53125 160.10938Q395.34375 160.10938 395.8125 160.55469Q396.28125 161.0 396.28125 161.73438Q396.28125 162.10938 396.125 162.92188L395.26562 167.0L394.10938 167.0L395.01562 162.73438Q395.14062 162.10938 395.14062 161.8125Q395.14062 161.46875 394.90625 161.25781Q394.67188 161.04688 394.23438 161.04688Q393.35938 161.04688 392.67188 161.6875Q391.98438 162.32812 391.65625 163.85938L391.0 167.0L389.85938 167.0ZM401.10938 167.0L403.04688 157.6875L406.9375 157.6875Q407.95312 157.6875 408.45312 157.92188Q408.95312 158.15625 409.28906 158.71875Q409.625 159.28125 409.625 159.98438Q409.625 160.5625 409.3828 161.15625Q409.14062 161.75 408.78906 162.14062Q408.4375 162.53125 408.0625 162.72656Q407.6875 162.92188 407.28125 163.01562Q406.375 163.21875 405.46875 163.21875L403.14062 163.21875L402.34375 167.0L401.10938 167.0ZM403.35938 162.17188L405.40625 162.17188Q406.60938 162.17188 407.16406 161.91406Q407.71875 161.65625 408.0547 161.125Q408.39062 160.59375 408.39062 160.01562Q408.39062 159.54688 408.21094 159.25781Q408.03125 158.96875 407.71094 158.83594Q407.39062 158.70312 406.46875 158.70312L404.07812 158.70312L403.35938 162.17188ZM410.0625 164.4375Q410.0625 162.46875 411.21875 161.17188Q412.17188 160.10938 413.73438 160.10938Q414.95312 160.10938 415.6953 160.86719Q416.4375 161.625 416.4375 162.92188Q416.4375 164.09375 415.96875 165.08594Q415.5 166.07812 414.6328 166.61719Q413.76562 167.15625 412.8125 167.15625Q412.03125 167.15625 411.3828 166.82031Q410.73438 166.48438 410.39844 165.86719Q410.0625 165.25 410.0625 164.4375ZM411.20312 164.32812Q411.20312 165.28125 411.66406 165.77344Q412.125 166.26562 412.82812 166.26562Q413.1875 166.26562 413.5547 166.11719Q413.92188 165.96875 414.22656 165.66406Q414.53125 165.35938 414.75 164.96875Q414.96875 164.57812 415.10938 164.125Q415.3125 163.5 415.3125 162.92188Q415.3125 162.0 414.85156 161.5Q414.39062 161.0 413.6875 161.0Q413.14062 161.0 412.70312 161.25781Q412.26562 161.51562 411.90625 162.00781Q411.54688 162.5 411.375 163.15625Q411.20312 163.8125 411.20312 164.32812ZM417.48438 164.4375Q417.48438 162.46875 418.64062 161.17188Q419.59375 160.10938 421.15625 160.10938Q422.375 160.10938 423.1172 160.86719Q423.85938 161.625 423.85938 162.92188Q423.85938 164.09375 423.39062 165.08594Q422.92188 166.07812 422.0547 166.61719Q421.1875 167.15625 420.23438 167.15625Q419.45312 167.15625 418.8047 166.82031Q418.15625 166.48438 417.8203 165.86719Q417.48438 165.25 417.48438 164.4375ZM418.625 164.32812Q418.625 165.28125 419.08594 165.77344Q419.54688 166.26562 420.25 166.26562Q420.60938 166.26562 420.97656 166.11719Q421.34375 165.96875 421.64844 165.66406Q421.95312 165.35938 422.17188 164.96875Q422.39062 164.57812 422.53125 164.125Q422.73438 163.5 422.73438 162.92188Q422.73438 162.0 422.27344 161.5Q421.8125 161.0 421.10938 161.0Q420.5625 161.0 420.125 161.25781Q419.6875 161.51562 419.32812 162.00781Q418.96875 162.5 418.79688 163.15625Q418.625 163.8125 418.625 164.32812ZM424.59375 167.0L426.53125 157.6875L427.6875 157.6875L425.73438 167.0L424.59375 167.0Z" fill-rule="nonzero" fill="#000000"></path><path d="M364.73438 182.0L370.01562 172.6875L371.48438 172.6875L373.01562 182.0L371.8125 182.0L371.35938 179.32812L367.59375 179.32812L366.10938 182.0L364.73438 182.0ZM368.125 178.35938L371.20312 178.35938L370.84375 176.03125Q370.64062 174.64062 370.59375 173.70312Q370.26562 174.51562 369.65625 175.60938L368.125 178.35938ZM374.48438 182.0L375.70312 176.14062L374.67188 176.14062L374.85938 175.26562L375.89062 175.26562L376.09375 174.29688Q376.23438 173.57812 376.39844 173.26562Q376.5625 172.95312 376.9297 172.74219Q377.29688 172.53125 377.92188 172.53125Q378.35938 172.53125 379.1875 172.71875L378.98438 173.71875Q378.39062 173.5625 378.0 173.5625Q377.67188 173.5625 377.4922 173.73438Q377.3125 173.90625 377.1875 174.53125L377.04688 175.26562L378.32812 175.26562L378.14062 176.14062L376.85938 176.14062L375.625 182.0L374.48438 182.0ZM378.1875 182.0L379.40625 176.14062L378.375 176.14062L378.5625 175.26562L379.59375 175.26562L379.79688 174.29688Q379.9375 173.57812 380.10156 173.26562Q380.26562 172.95312 380.6328 172.74219Q381.0 172.53125 381.625 172.53125Q382.0625 172.53125 382.89062 172.71875L382.6875 173.71875Q382.09375 173.5625 381.70312 173.5625Q381.375 173.5625 381.1953 173.73438Q381.01562 173.90625 380.89062 174.53125L380.75 175.26562L382.03125 175.26562L381.84375 176.14062L380.5625 176.14062L379.32812 182.0L378.1875 182.0ZM383.35938 174.0L383.64062 172.6875L384.78125 172.6875L384.5 174.0L383.35938 174.0ZM381.6875 182.0L383.09375 175.26562L384.25 175.26562L382.82812 182.0L381.6875 182.0ZM384.6875 182.0L386.09375 175.26562L387.125 175.26562L386.89062 176.4375Q387.5625 175.73438 388.15625 175.42188Q388.75 175.10938 389.35938 175.10938Q390.17188 175.10938 390.64062 175.55469Q391.10938 176.0 391.10938 176.73438Q391.10938 177.10938 390.95312 177.92188L390.09375 182.0L388.9375 182.0L389.84375 177.73438Q389.96875 177.10938 389.96875 176.8125Q389.96875 176.46875 389.73438 176.25781Q389.5 176.04688 389.0625 176.04688Q388.1875 176.04688 387.5 176.6875Q386.8125 177.32812 386.48438 178.85938L385.82812 182.0L384.6875 182.0ZM393.71875 174.0L394.0 172.6875L395.14062 172.6875L394.85938 174.0L393.71875 174.0ZM392.04688 182.0L393.45312 175.26562L394.60938 175.26562L393.1875 182.0L392.04688 182.0ZM397.73438 181.0625L397.54688 182.0Q397.14062 182.10938 396.75 182.10938Q396.0625 182.10938 395.65625 181.78125Q395.35938 181.53125 395.35938 181.07812Q395.35938 180.85938 395.51562 180.0625L396.34375 176.14062L395.4375 176.14062L395.60938 175.26562L396.51562 175.26562L396.875 173.60938L398.1875 172.8125L397.67188 175.26562L398.79688 175.26562L398.60938 176.14062L397.48438 176.14062L396.70312 179.875Q396.5625 180.57812 396.5625 180.71875Q396.5625 180.92188 396.6797 181.03125Q396.79688 181.14062 397.0625 181.14062Q397.4375 181.14062 397.73438 181.0625ZM398.32812 184.60938L398.39062 183.53125Q398.75 183.625 399.09375 183.625Q399.4375 183.625 399.65625 183.46875Q399.9375 183.25 400.26562 182.67188L400.625 182.01562L399.51562 175.26562L400.64062 175.26562L401.14062 178.67188Q401.29688 179.67188 401.40625 180.6875L404.42188 175.26562L405.625 175.26562L401.32812 182.89062Q400.70312 184.01562 400.21875 184.375Q399.73438 184.73438 399.10938 184.73438Q398.70312 184.73438 398.32812 184.60938Z" fill-rule="nonzero" fill="#000000"></path></svg>

